# xmcd
#
# Track frame offsets:
#	150
#	20087
#	40797
#	60555
#	77967
#	100540
#	119987
#	141207
#	163265
#	182797
#	200415
#	220305
#	239055
#	260800
#	279390
#	296592
#	312432
#
# Disc length: 4400 seconds
#
# Revision: 5
# Processed by: cddbd v1.5.2PL0 Copyright (c) Steve Scherf et al.
# Submitted via: EasyCDDAExtractor 15.3.0.1
#
DISCID=11112e11
DTITLE=Mariah Carey - #1's (US Edition)
DYEAR=1998
DGENRE=R&B/Pop
TTITLE0=Sweetheart (Mariah Featuring JD)
TTITLE1=When You Believe (From The Prince Of Egypt) (Mariah Carey and Whitney Ho
TTITLE1=uston)
TTITLE2=Whenever You Call (Mariah Carey and Brian McKnight)
TTITLE3=My All
TTITLE4=Honey
TTITLE5=Always Be My Baby
TTITLE6=One Sweet Day (Mariah Carey and Boyz II Men)
TTITLE7=Fantasy (Featuring O.D.B.)
TTITLE8=Hero
TTITLE9=Dreamlover
TTITLE10=I'll Be There (Featuring Trey Lorenz)
TTITLE11=Emotions
TTITLE12=I Don't Wanna Cry
TTITLE13=Someday
TTITLE14=Love Takes Time
TTITLE15=Vision Of Love
TTITLE16=I Still Believe
EXTD=
EXTT0=
EXTT1=
EXTT2=
EXTT3=
EXTT4=
EXTT5=
EXTT6=
EXTT7=
EXTT8=
EXTT9=
EXTT10=
EXTT11=
EXTT12=
EXTT13=
EXTT14=
EXTT15=
EXTT16=
PLAYORDER=
